<svg width="44" height="44" viewBox="0 0 44 44" fill="none" xmlns="http://www.w3.org/2000/svg">
<path fill-rule="evenodd" clip-rule="evenodd" d="M3.22909 7.15332C3.88811 6.06005 7.52126 2.09134 10.1102 2.21115C10.8848 2.27748 11.5695 2.74388 12.1258 3.2873H12.1279C13.4032 4.53675 17.062 9.25213 17.2674 10.2448C17.7745 12.6796 14.871 14.083 15.759 16.537C18.0227 22.0761 21.9233 25.9763 27.465 28.2377C29.9171 29.1278 31.3207 26.2266 33.7557 26.7316C34.7485 26.9391 39.4664 30.5954 40.7138 31.8727V31.8727C41.2552 32.4268 41.7259 33.1136 41.7901 33.8881C41.8864 36.6159 37.6712 40.2979 36.8496 40.7686C34.9111 42.1571 32.382 42.1314 29.2987 40.698C20.6952 37.1187 6.94569 23.6293 3.2997 14.7013C1.90464 11.6355 1.8105 9.08953 3.22909 7.15332Z" stroke="white" stroke-width="3" stroke-linecap="round" stroke-linejoin="round"/>
<path d="M27.3446 2.72949C35.0571 3.58574 41.1467 9.66908 42.0134 17.3795" stroke="white" stroke-width="3" stroke-linecap="round" stroke-linejoin="round"/>
<path d="M27.3446 10.1104C31.0321 10.8291 33.9134 13.7104 34.6321 17.3979" stroke="white" stroke-width="3" stroke-linecap="round" stroke-linejoin="round"/>
</svg>
