<svg width="50" height="50" viewBox="0 0 50 50" fill="none" xmlns="http://www.w3.org/2000/svg">
<path d="M41.6689 0H8.33108C3.72973 0 0 3.72973 0 8.33108V41.6622C0 46.2703 3.72973 50 8.33108 50H41.6622C46.2703 50 50 46.2703 50 41.6689V8.33108C50 3.72973 46.2703 0 41.6689 0ZM45.8311 41.6689C45.8311 43.973 43.9662 45.8378 41.6622 45.8378H8.33108C6.02703 45.8378 4.16216 43.973 4.16216 41.6689V8.33108C4.16216 6.02703 6.02703 4.16216 8.33108 4.16216H41.6622C43.9662 4.16216 45.8311 6.02703 45.8311 8.33108V41.6689Z" fill="white"/>
<path d="M25 12.5C18.0946 12.5 12.5 18.0946 12.5 25C12.5 31.9054 18.0946 37.5 25 37.5C31.9054 37.5 37.5 31.9054 37.5 25C37.5 18.0946 31.9054 12.5 25 12.5ZM25 33.3311C20.3986 33.3311 16.6689 29.6014 16.6689 25C16.6689 20.3986 20.3986 16.6689 25 16.6689C29.6014 16.6689 33.3311 20.3986 33.3311 25C33.3311 29.6014 29.6014 33.3311 25 33.3311Z" fill="white"/>
<path d="M38.5405 14.5878C40.2683 14.5878 41.6689 13.1872 41.6689 11.4594C41.6689 9.73168 40.2683 8.33105 38.5405 8.33105C36.8128 8.33105 35.4122 9.73168 35.4122 11.4594C35.4122 13.1872 36.8128 14.5878 38.5405 14.5878Z" fill="white"/>
</svg>
