<svg width="50" height="50" viewBox="0 0 50 50" fill="none" xmlns="http://www.w3.org/2000/svg">
<path fill-rule="evenodd" clip-rule="evenodd" d="M12.2192 0H37.774C44.4452 0 50 5.55479 50 12.2192V37.774C50 44.4452 44.4452 50 37.7808 50H12.2192C5.55479 50 0 44.4452 0 37.7808V12.2192C0 5.55479 5.55479 0 12.2192 0ZM13.8904 2.78082H36.1096C42.2192 2.78082 47.2192 7.78082 47.2192 13.8904V36.1096C47.2192 42.2192 42.2192 47.2192 36.1096 47.2192H13.8904C7.78082 47.2192 2.78082 42.2192 2.78082 36.1096V13.8904C2.78082 7.78082 7.78082 2.78082 13.8904 2.78082Z" fill="white"/>
<path d="M37.4315 14.2877C29.3014 17.685 21.1712 21.0891 13.0411 24.4864C14.8151 25.2261 16.7397 25.9658 18.5137 26.7055C19.6986 25.9658 32.1164 18.7261 32.411 18.7261C32.5616 18.7261 32.7055 18.8768 32.7055 19.0206C32.7055 19.4658 24.2808 27.7398 23.2466 28.774L22.0616 33.6507L26.4931 29.9521L33 36.0138C33.4452 33.7946 36.6986 17.2398 37.2877 14.2809H37.4315V14.2877ZM36.8425 11.185C39.2055 10.3014 41.274 11.774 40.6849 14.4384C40.6849 14.4384 36.6918 34.6918 36.2534 36.7603C35.9589 38.9795 33 39.8631 31.0822 38.2398L26.5 34.1028L22.8014 37.2055C21.0274 38.5343 19.5479 36.911 18.9589 35.2809C18.6644 34.3973 17.4794 30.8494 17.0342 29.3699C15.5548 28.7809 12.1575 27.4453 11.2671 27.0069C8.60958 25.9727 8.4589 22.8699 11.2671 21.8357C19.8425 18.2809 28.411 14.4384 36.9863 11.0412L36.8425 11.185Z" fill="white"/>
</svg>
