<svg width="50" height="50" viewBox="0 0 50 50" fill="none" xmlns="http://www.w3.org/2000/svg">
<path fill-rule="evenodd" clip-rule="evenodd" d="M12.2227 0H37.7773C44.4467 0 50 5.55326 50 12.2227V37.7773C50 44.4467 44.4467 50 37.7773 50H12.2227C5.55326 50 0 44.4399 0 37.7773V12.2227C0 5.55326 5.55326 0 12.2227 0ZM13.89 2.77663H36.11C42.2213 2.77663 47.2234 7.7787 47.2234 13.89V36.11C47.2234 42.2213 42.2213 47.2234 36.11 47.2234H13.89C7.7787 47.2234 2.77663 42.2213 2.77663 36.11V13.89C2.77663 7.7787 7.7787 2.77663 13.89 2.77663Z" fill="white"/>
<path d="M30.7979 20.1322C30.7979 20.5869 30.7979 20.9245 30.7979 21.2621C30.7979 24.3213 30.7979 27.3735 30.791 30.4326C30.7772 35.0488 27.5941 38.6936 23.0605 39.6031C18.4098 40.5401 12.7394 37.0676 12.1951 31.3352C11.6508 25.6855 16.1913 20.8419 21.8617 21.0899C22.7436 21.1312 22.7436 21.1312 22.7436 22.0131C22.7436 23.2947 22.7436 24.5762 22.7436 25.8508C22.7436 25.9886 22.7436 26.1333 22.7436 26.2849C22.2751 26.2435 21.8548 26.1746 21.4345 26.1746C19.1402 26.1746 17.2523 28.0763 17.2386 30.3706C17.2248 32.658 19.1126 34.5941 21.3863 34.6354C23.7151 34.6768 25.6373 32.8647 25.7131 30.5704C25.72 30.4533 25.72 30.3361 25.72 30.219C25.7269 24.2386 25.7269 18.2513 25.7338 12.2708C25.7338 11.7472 25.7338 11.2236 25.72 10.7068C25.7131 10.4037 25.8027 10.259 26.1472 10.2659C27.5596 10.2865 28.9652 10.2796 30.3776 10.2796C30.6394 10.2796 30.7979 10.3072 30.8323 10.6517C31.1906 14.4274 33.733 16.956 37.5224 17.3211C37.7636 17.3418 37.8738 17.4245 37.8669 17.6794C37.86 19.14 37.86 20.6076 37.8669 22.0683C37.8669 22.3645 37.7222 22.4196 37.4742 22.4059C35.2143 22.2818 33.106 21.6686 31.2113 20.4009C31.0941 20.3182 30.9908 20.2493 30.7979 20.1322Z" fill="white"/>
</svg>
