<svg width="190" height="190" viewBox="0 0 190 190" fill="none" xmlns="http://www.w3.org/2000/svg">
<path d="M106.875 190H19.7917C8.86512 189.99 0.00967808 181.135 0 170.208V83.1249C0.00967808 72.1984 8.86512 63.3429 19.7917 63.3333H67.2917V71.2499H19.7917C13.2299 71.2499 7.91667 76.5632 7.91667 83.1249V170.208C7.91667 176.77 13.2299 182.083 19.7917 182.083H106.875C113.437 182.083 118.75 176.77 118.75 170.208V122.708H126.667V170.208C126.657 181.135 117.802 189.99 106.875 190Z" fill="black"/>
<path d="M51.4583 122.708H23.75C21.5628 122.708 19.7917 120.937 19.7917 118.75V67.2917H27.7084V114.792H47.5V67.2917H55.4167V118.75C55.4167 120.937 53.6456 122.708 51.4583 122.708Z" fill="black"/>
<path d="M110.833 166.25H87.0833V174.167H110.833V166.25Z" fill="black"/>
<path d="M110.349 150.901H87.5672V157.85H110.349V150.901Z" fill="black"/>
<path d="M109.865 151.385V157.366H88.0511V151.385H109.865ZM110.833 150.417H87.0833V158.333H110.833V150.417Z" fill="black"/>
<path d="M126.667 126.667C91.6901 126.667 63.3333 98.3099 63.3333 63.3333C63.3333 28.3568 91.6901 0 126.667 0C161.643 0 190 28.3568 190 63.3333C189.961 98.3002 161.634 126.628 126.667 126.667ZM126.667 7.91667C96.0646 7.91667 71.25 32.7313 71.25 63.3333C71.25 93.9354 96.0646 118.75 126.667 118.75C157.269 118.75 182.083 93.9354 182.083 63.3333C182.054 32.7409 157.259 7.9457 126.667 7.91667Z" fill="black"/>
<path d="M143.661 85.922L123.87 66.1304C123.124 65.3852 122.708 64.3786 122.708 63.3334V31.6667H130.625V61.6978L149.255 80.3281L143.661 85.922Z" fill="black"/>
<path d="M126.667 110.833C100.429 110.833 79.1667 89.5705 79.1667 63.3333C79.1667 37.096 100.429 15.8333 126.667 15.8333V23.7499C104.804 23.7499 87.0834 41.4705 87.0834 63.3333C87.0834 85.196 104.804 102.917 126.667 102.917C148.529 102.917 166.25 85.196 166.25 63.3333H174.167C174.138 89.5608 152.894 110.804 126.667 110.833Z" fill="black"/>
<path d="M178.125 122.708H170.208V154.375H178.125V122.708Z" fill="black"/>
<path d="M178.125 162.292H170.208V170.208H178.125V162.292Z" fill="black"/>
<path d="M150.417 134.583H142.5V166.25H150.417V134.583Z" fill="black"/>
<path d="M150.417 174.167H142.5V182.083H150.417V174.167Z" fill="black"/>
</svg>
