<svg width="190" height="190" viewBox="0 0 190 190" fill="none" xmlns="http://www.w3.org/2000/svg">
<path d="M9.75149 0.00341797C4.41344 0.00341797 0 4.38258 0 9.72706V161.256C0 166.601 4.40112 171.003 9.75149 171.003H22.1905C26.419 171.003 26.419 164.67 22.1905 164.67H9.75149C7.80366 164.67 6.33662 163.199 6.33662 161.256V9.72706C6.33662 7.78468 7.80366 6.31319 9.75149 6.31319H110.854V43.0183L104.517 49.3516L97.256 42.0883C96.0232 40.8405 94.0014 40.8405 92.7686 42.0883L85.5197 49.3516L78.2585 42.0883C77.0257 40.864 75.0286 40.864 73.7958 42.0883L66.5345 49.3516L60.1979 43.0183V15.8367C60.1979 11.6106 53.8613 11.6106 53.8613 15.8367V44.325C53.8613 45.1726 54.1941 45.9731 54.7982 46.5734L64.2908 56.0617C65.5236 57.3095 67.5454 57.3095 68.7782 56.0617L76.0395 48.7983L83.2884 56.0617C84.5212 57.3095 86.5306 57.3095 87.7758 56.0617L95.0247 48.8101L102.286 56.0617C103.519 57.2859 105.516 57.2859 106.749 56.0617L116.266 46.5734C116.858 45.9848 117.203 45.1726 117.203 44.325V6.31319H161.288C163.236 6.31319 164.703 7.78468 164.703 9.72706V120.325C164.321 124.904 171.397 124.904 171.015 120.325V9.72706C171.015 4.38258 166.638 0.00341797 161.288 0.00341797H9.75149ZM139.936 189.05L164.691 184.318V186.825C164.678 188.579 166.096 190.003 167.846 190.003H186.856C188.607 189.992 190.012 188.579 190.012 186.825V132.98C190 131.238 188.595 129.837 186.856 129.825H167.846C166.108 129.837 164.703 131.238 164.691 132.98V136.429C157.959 132.897 149.885 132.98 142.5 132.98H126.671C119.705 132.98 114.01 138.689 114.01 145.658C114.01 152.616 119.718 158.337 126.671 158.337H139.344V161.492C139.344 163.305 137.976 164.67 136.163 164.67H41.1634C39.3512 164.67 38.0074 163.305 38.0074 161.492V110.837C38.0074 109.024 39.3635 107.647 41.1634 107.647H136.163C137.976 107.647 139.344 109.024 139.344 110.837V123.503C139.344 127.73 145.681 127.73 145.681 123.503V110.837C145.681 105.634 141.378 101.313 136.163 101.313H41.1634C35.9609 101.313 31.6708 105.622 31.6708 110.837V161.492C31.6708 166.695 35.9609 171.003 41.1634 171.003H100.326L121.752 186.295C125.672 188.744 131.984 190.58 139.936 189.05ZM88.6757 113.933C87.0977 113.933 85.5074 114.992 85.5074 117.099V120.914C81.846 122.232 79.1708 125.74 79.1708 129.837C79.1708 135.052 83.4609 139.325 88.6634 139.325C90.451 139.325 91.844 140.714 91.844 142.503C91.844 144.293 90.451 145.658 88.6634 145.658C86.8758 145.658 85.5074 144.293 85.5074 142.503C85.5074 138.277 79.1708 138.277 79.1708 142.503C79.1708 146.6 81.8336 150.085 85.5074 151.403V155.147C85.5074 159.373 91.844 159.373 91.844 155.147V151.403C95.5055 150.085 98.1806 146.6 98.1806 142.503C98.1806 137.288 93.8782 132.98 88.6634 132.98C86.8758 132.98 85.5074 131.614 85.5074 129.825C85.5074 128.036 86.8758 126.647 88.6634 126.647C90.451 126.647 91.844 128.036 91.844 129.825C91.844 134.051 98.1806 134.051 98.1806 129.825C98.1806 125.74 95.5055 122.244 91.844 120.914V117.099C91.844 114.992 90.266 113.933 88.6757 113.933ZM57.0049 113.992C55.2544 113.992 53.8366 115.404 53.8366 117.158C53.8366 120.69 51.0382 123.492 47.5 123.492C45.7494 123.492 44.3317 124.904 44.3317 126.658V145.658C44.3317 147.412 45.7494 148.825 47.5 148.825C51.0382 148.825 53.8366 151.627 53.8366 155.158C53.8366 156.912 55.2544 158.325 57.0049 158.325H76.0025C80.2803 158.384 80.2803 151.933 76.0025 151.992H59.7541C58.5829 147.624 55.2667 144.057 50.6683 142.892V129.448C55.0324 128.283 58.5583 124.916 59.7541 120.337H76.0025C80.2803 120.396 80.2803 113.945 76.0025 114.003H57.0049V113.992ZM101.337 113.992C97.0588 113.933 97.0588 120.384 101.337 120.325H117.585C118.115 122.338 119.138 124.221 120.494 125.717C123.342 128.824 128.015 124.551 125.167 121.432C124.131 120.301 123.502 118.83 123.502 117.158C123.502 115.404 122.085 113.992 120.334 113.992H101.337ZM170.99 136.17H183.663V183.67H170.99V136.17ZM126.671 139.325H142.5C151.499 139.325 159.426 139.537 164.691 144.116V177.878L138.752 182.846C132.366 184.07 127.657 182.493 125.228 180.986L111.236 170.992H136.163C141.366 170.992 145.681 166.683 145.681 161.48V155.135C145.668 153.381 144.251 151.968 142.5 151.98H126.671C123.108 151.98 120.334 149.213 120.334 145.647C120.334 142.091 123.108 139.325 126.671 139.325ZM101.337 151.992C97.0588 151.933 97.0588 158.384 101.337 158.325H107.673C111.951 158.384 111.951 151.933 107.673 151.992H101.337Z" fill="black"/>
</svg>
