<svg width="40" height="50" viewBox="0 0 40 50" fill="none" xmlns="http://www.w3.org/2000/svg">
<path d="M1.69121 50.0694H38.1123C39.0245 50.0694 39.7965 49.3056 39.7965 48.4028V16.3194C39.7965 15.3472 39.0245 14.6528 38.1123 14.6528H30.3228V10.3472C30.3228 4.65278 25.621 0 19.8666 0C14.1123 0 9.41051 4.65278 9.41051 10.3472V14.6528H1.69121C0.778926 14.6528 0.00699623 15.4167 0.00699623 16.3194V48.4028C-0.0631792 49.3056 0.708751 50.0694 1.69121 50.0694ZM12.8491 10.3472C12.8491 6.52778 16.007 3.40278 19.8666 3.40278C23.7263 3.40278 26.8842 6.52778 26.8842 10.3472V14.6528H12.8491V10.3472ZM3.37542 18.0556H9.41051V20.4167C9.41051 21.3889 10.1824 22.0833 11.0947 22.0833C12.007 22.0833 12.7789 21.3194 12.7789 20.4167V18.0556H26.814V20.4167C26.814 21.3889 27.5859 22.0833 28.4982 22.0833C29.4105 22.0833 30.1824 21.3194 30.1824 20.4167V18.0556H36.2175V46.6667H3.23507V18.0556H3.37542Z" fill="white"/>
</svg>
