<svg width="40" height="50" viewBox="0 0 40 50" fill="none" xmlns="http://www.w3.org/2000/svg">
<path d="M1.69133 50.0694H38.1124C39.0247 50.0694 39.7966 49.3056 39.7966 48.4028V16.3194C39.7966 15.3472 39.0247 14.6528 38.1124 14.6528H30.3229V10.3472C30.3229 4.65278 25.6212 0 19.8668 0C14.1124 0 9.41063 4.65278 9.41063 10.3472V14.6528H1.69133C0.779048 14.6528 0.0071183 15.4167 0.0071183 16.3194V48.4028C-0.0630571 49.3056 0.708873 50.0694 1.69133 50.0694ZM12.8492 10.3472C12.8492 6.52778 16.0071 3.40278 19.8668 3.40278C23.7264 3.40278 26.8843 6.52778 26.8843 10.3472V14.6528H12.8492V10.3472ZM3.37554 18.0556H9.41063V20.4167C9.41063 21.3889 10.1826 22.0833 11.0948 22.0833C12.0071 22.0833 12.779 21.3194 12.779 20.4167V18.0556H26.8141V20.4167C26.8141 21.3889 27.5861 22.0833 28.4983 22.0833C29.4106 22.0833 30.1826 21.3194 30.1826 20.4167V18.0556H36.2176V46.6667H3.23519V18.0556H3.37554Z" fill="black"/>
</svg>
