<svg width="19" height="21" viewBox="0 0 19 21" fill="none" xmlns="http://www.w3.org/2000/svg">
<path fill-rule="evenodd" clip-rule="evenodd" d="M13.6033 1.53165C13.3046 0.652372 12.5287 0.0833359 11.6499 0.0833359H7.34997L7.1865 0.0899312C6.32213 0.159891 5.58454 0.780175 5.35739 1.65138L5.09946 2.9668L5.06923 3.0826C4.94572 3.45758 4.60042 3.71784 4.206 3.71784L4.206 3.71784H0.886865L0.783484 3.72498C0.411617 3.77671 0.125 4.10359 0.125 4.49912C0.125 4.93061 0.466098 5.2804 0.886865 5.2804H18.1131L18.2165 5.27327C18.5884 5.22154 18.875 4.89465 18.875 4.49912C18.875 4.06763 18.5339 3.71784 18.1131 3.71784H14.7947C14.7945 3.71784 14.7942 3.71784 14.7939 3.71784L14.6772 3.71018C14.2943 3.65958 13.9779 3.36325 13.9004 2.96649L13.6536 1.70009L13.6033 1.53165ZM12.5358 3.71784C12.5011 3.62964 12.4711 3.53876 12.4461 3.4455L12.4063 3.27301L12.1705 2.055C12.1154 1.84366 11.9452 1.68894 11.7399 1.65357L11.6499 1.64589H7.34997C7.1362 1.64589 6.94619 1.77419 6.86726 1.93545L6.84049 2.00629L6.59359 3.27332C6.56346 3.42759 6.51983 3.57616 6.46412 3.71784H12.5358ZM16.7692 7.08351C17.1536 7.1153 17.4483 7.43454 17.4687 7.81881L17.4588 8.03306L17.1313 12.0448L16.7876 15.9597C16.7149 16.7413 16.6498 17.4005 16.5936 17.9194C16.3984 19.7279 15.2245 20.8462 13.4548 20.8793C10.6973 20.9302 8.04665 20.9297 5.47264 20.874C3.75415 20.838 2.59758 19.7076 2.40579 17.9268L2.27324 16.6147L2.04162 14.0698L1.80434 11.2772L1.53305 7.92487C1.49933 7.49477 1.812 7.11808 2.23141 7.0835C2.61588 7.0518 2.95658 7.31858 3.03666 7.69456L3.06783 8.0018L3.32257 11.1445L3.60073 14.402C3.72549 15.8121 3.8337 16.9533 3.92028 17.755C4.02958 18.7698 4.56395 19.2921 5.5043 19.3118C8.05819 19.367 10.6891 19.3676 13.4272 19.317C14.4247 19.2983 14.9676 18.7812 15.0792 17.7472L15.2112 16.4423C15.2498 16.0401 15.2911 15.5961 15.3348 15.1138L15.6132 11.9102L15.9486 7.79948C15.9796 7.40523 16.2909 7.10302 16.6656 7.0821L16.7692 7.08351Z" fill="white"/>
</svg>
