<svg width="412" height="208" viewBox="0 0 412 208" fill="none" xmlns="http://www.w3.org/2000/svg">
<path d="M26.064 181.251H39.3907C43.1387 181.251 46.3 179.873 48.8667 177.104C51.4307 174.343 52.7173 171.285 52.7173 167.927V39.3894C52.7173 35.2453 51.4827 31.7907 49.016 29.024C46.5453 26.2614 43.3373 24.8787 39.3907 24.8787H26.064V181.251ZM58.7893 5.18271C64.8107 8.64137 69.6467 13.3787 73.3027 19.3987C76.952 25.424 78.7813 32.088 78.7813 39.3894V167.927C78.7813 174.839 76.952 181.303 73.3027 187.323C69.6467 193.348 64.8107 198.184 58.7893 201.836C52.764 205.493 46.3 207.313 39.3907 207.313H0V3.05176e-05H39.3907C46.3 3.05176e-05 52.764 1.73071 58.7893 5.18271Z" fill="white"/>
<path d="M215.164 29.024C212.692 26.2614 209.482 24.8787 205.538 24.8787C202.178 24.8787 199.169 26.3134 196.502 29.172C193.84 32.036 192.506 35.4427 192.506 39.3894V167.927C192.506 171.083 193.885 174.045 196.652 176.811C199.413 179.576 202.377 180.953 205.538 180.953C209.482 180.953 212.692 179.623 215.164 176.957C217.626 174.291 218.862 171.285 218.862 167.927V39.3894C218.862 35.2454 217.626 31.7907 215.164 29.024ZM233.669 11.404C241.17 19.0067 244.925 28.3347 244.925 39.3894V167.927C244.925 174.839 243.198 181.303 239.746 187.323C236.292 193.348 231.545 198.184 225.525 201.836C219.505 205.493 212.842 207.313 205.538 207.313C198.82 207.313 192.552 205.493 186.732 201.836C180.905 198.184 176.261 193.348 172.81 187.323C169.354 181.303 167.628 174.839 167.628 167.927V39.3894C167.628 32.088 169.354 25.424 172.81 19.3987C176.261 13.3787 180.853 8.64137 186.582 5.18271C192.306 1.73071 198.621 3.05176e-05 205.538 3.05176e-05C216.786 3.05176e-05 226.166 3.80405 233.669 11.404Z" fill="white"/>
<path d="M386.195 37.9108C386.195 34.5535 384.859 31.5415 382.199 28.8775C379.532 26.2122 376.518 24.8788 373.163 24.8788C369.412 24.8788 366.303 26.2122 363.834 28.8775C361.363 31.5415 360.131 34.5535 360.131 37.9108V77.3002C360.131 79.8681 361.66 82.3841 364.723 84.8521C367.779 87.3228 372.767 90.7295 379.679 95.0695C389.55 100.993 397.25 106.427 402.779 111.359C408.304 116.297 411.074 122.017 411.074 128.533V167.927C411.074 174.839 409.394 181.303 406.04 187.323C402.68 193.348 398.09 198.184 392.267 201.836C386.44 205.493 380.07 207.313 373.163 207.313C365.854 207.313 359.192 205.493 353.171 201.836C347.147 198.184 342.41 193.348 338.955 187.323C335.498 181.303 333.776 174.839 333.776 167.927V154.895H360.131V167.927C360.131 171.285 361.363 174.291 363.834 176.957C366.303 179.623 369.412 180.953 373.163 180.953C376.518 180.953 379.532 179.576 382.199 176.811C384.859 174.045 386.195 171.083 386.195 167.927V128.533C386.195 125.773 384.567 123.108 381.307 120.541C378.051 117.975 372.866 114.719 365.76 110.768C355.29 104.844 347.344 99.4655 341.919 94.6268C336.483 89.7895 333.776 84.0148 333.776 77.3002V37.9108C333.776 31.0002 335.498 24.6828 338.955 18.9548C342.41 13.2322 347.147 8.64148 353.171 5.18282C359.192 1.73082 365.854 0.000152588 373.163 0.000152588C380.07 0.000152588 386.44 1.73082 392.267 5.18282C398.09 8.64148 402.68 13.2815 406.04 19.1042C409.394 24.9282 411.074 31.1988 411.074 37.9108V51.2375H386.195V37.9108Z" fill="white"/>
</svg>
