<svg width="80" height="40" viewBox="0 0 80 40" fill="none" xmlns="http://www.w3.org/2000/svg">
<path d="M11.4404 1.00071C12.6133 1.66699 13.5526 2.5828 14.2636 3.74301C14.9745 4.90578 15.33 6.19204 15.33 7.5992V32.3982C15.33 33.7308 14.9745 34.9785 14.2636 36.1412C13.5526 37.304 12.6107 38.2378 11.4404 38.9401C10.2676 39.645 9.00911 39.9974 7.66501 39.9974H0V0H7.66501C9.01171 0 10.2676 0.334427 11.4404 1.00071ZM5.07282 34.9707H7.66501C8.39415 34.9707 9.00911 34.7058 9.50991 34.1707C10.0081 33.6382 10.2598 33.0491 10.2598 32.4008V7.60177C10.2598 6.80172 10.0185 6.13544 9.53845 5.60293C9.05841 5.07042 8.43307 4.80288 7.66501 4.80288H5.07282V34.9707Z" fill="black"/>
<path d="M45.4736 2.1995C46.9345 3.66583 47.6636 5.46659 47.6636 7.5992V32.3982C47.6636 33.7308 47.3263 34.9785 46.6543 36.1412C45.9822 37.304 45.0585 38.2378 43.8856 38.9401C42.7128 39.645 41.418 39.9974 39.996 39.9974C38.6883 39.9974 37.4687 39.645 36.3348 38.9401C35.2009 38.2353 34.2979 37.3014 33.6258 36.1412C32.9538 34.9785 32.6165 33.7334 32.6165 32.3982V7.5992C32.6165 6.18947 32.9538 4.90578 33.6258 3.74301C34.2979 2.58023 35.1905 1.66699 36.3062 1.00071C37.4246 0.334427 38.6545 0 39.9986 0C42.1886 0 44.0128 0.733166 45.4736 2.1995ZM41.8721 5.60036C41.392 5.06785 40.7667 4.80031 39.9986 4.80031C39.3447 4.80031 38.7583 5.07814 38.2394 5.62866C37.7204 6.18175 37.4609 6.83774 37.4609 7.5992V32.3982C37.4609 33.0079 37.7282 33.579 38.2679 34.1115C38.805 34.644 39.3811 34.9116 39.9986 34.9116C40.7667 34.9116 41.3894 34.6543 41.8721 34.1398C42.3521 33.6253 42.5908 33.0465 42.5908 32.3982V7.5992C42.5934 6.79915 42.3521 6.13287 41.8721 5.60036Z" fill="black"/>
<path d="M75.1582 7.31365C75.1582 6.66538 74.8987 6.08399 74.3798 5.57206C73.8608 5.05756 73.2744 4.80031 72.6205 4.80031C71.8914 4.80031 71.2842 5.05756 70.8041 5.57206C70.3241 6.08657 70.0828 6.66795 70.0828 7.31365V14.9129C70.0828 15.4094 70.3812 15.893 70.9754 16.3689C71.5696 16.8448 72.5401 17.5034 73.8867 18.3394C75.8069 19.4816 77.3067 20.5312 78.3835 21.4831C79.4578 22.4349 79.9975 23.5385 79.9975 24.7964V32.3957C79.9975 33.7282 79.6705 34.9759 79.0166 36.1387C78.3628 37.3014 77.4702 38.2353 76.3362 38.9375C75.2023 39.6424 73.962 39.9949 72.6179 39.9949C71.1959 39.9949 69.8986 39.6424 68.7283 38.9375C67.5555 38.2327 66.6343 37.2989 65.9623 36.1387C65.2902 34.9759 64.9529 33.7308 64.9529 32.3957V29.8823H70.0828V32.3957C70.0828 33.0439 70.3215 33.6227 70.8041 34.1372C71.2842 34.6517 71.8888 34.909 72.6205 34.909C73.2744 34.909 73.8608 34.644 74.3798 34.1089C74.8987 33.5764 75.1582 33.0028 75.1582 32.3957V24.799C75.1582 24.2665 74.8416 23.752 74.2059 23.2581C73.5728 22.7616 72.5634 22.1339 71.1804 21.3724C69.1435 20.2302 67.597 19.1909 66.5409 18.2571C65.4822 17.3233 64.9555 16.2094 64.9555 14.9154V7.31365C64.9555 5.98109 65.2902 4.76172 65.9648 3.65554C66.6369 2.55193 67.5581 1.66442 68.7309 0.998135C69.9011 0.334427 71.1985 0 72.6205 0C73.9646 0 75.2049 0.334427 76.3388 1.00071C77.4728 1.66699 78.3654 2.56222 79.0192 3.68641C79.6731 4.8106 80.0001 6.01968 80.0001 7.31623V9.88617H75.1582V7.31365Z" fill="black"/>
</svg>
